<?xml version="1.0" standalone="no"?>
<!DOCTYPE svg PUBLIC "-//W3C//DTD SVG 20010904//EN"
 "http://www.w3.org/TR/2001/REC-SVG-20010904/DTD/svg10.dtd">
<svg version="1.0" xmlns="http://www.w3.org/2000/svg"
 width="1024.000000pt" height="1024.000000pt" viewBox="0 0 1024.000000 1024.000000"
 preserveAspectRatio="xMidYMid meet">

<g transform="translate(0.000000,1024.000000) scale(0.100000,-0.100000)"
fill="#000000" stroke="none">
<path d="M6615 8760 c-22 -24 -22 -77 -1 -99 20 -19 82 -20 101 0 27 26 30 74
6 98 -27 27 -82 28 -106 1z"/>
<path d="M6862 8710 c-12 -5 -27 -21 -32 -36 -31 -80 68 -143 119 -78 28 35
26 69 -4 99 -25 26 -45 30 -83 15z"/>
<path d="M7043 8564 c-20 -20 -24 -31 -19 -57 9 -42 33 -67 68 -67 39 0 68 32
68 75 0 70 -68 98 -117 49z"/>
<path d="M6696 8518 c-25 -35 -21 -85 8 -103 74 -49 152 47 90 109 -24 24 -80
20 -98 -6z"/>
<path d="M6350 8460 c-45 -45 -11 -120 55 -120 46 0 70 35 62 87 -4 20 -12 40
-19 45 -24 15 -77 9 -98 -12z"/>
<path d="M7240 8440 c-43 -43 -13 -130 45 -130 35 0 75 42 75 78 0 60 -78 94
-120 52z"/>
<path d="M6872 8387 c-44 -47 -16 -117 47 -119 24 -1 40 5 53 22 57 71 -38
163 -100 97z"/>
<path d="M6545 8335 c-14 -13 -25 -36 -25 -50 0 -29 40 -75 65 -75 20 0 57 19
67 34 18 26 8 75 -18 95 -35 27 -59 26 -89 -4z"/>
<path d="M7433 8302 c-47 -7 -68 -76 -37 -120 11 -16 25 -22 54 -22 44 0 70
26 70 70 0 50 -37 80 -87 72z"/>
<path d="M7070 8292 c-45 -13 -54 -89 -16 -127 27 -27 57 -25 94 8 55 50 -4
141 -78 119z"/>
<path d="M6210 8270 c-26 -26 -26 -81 0 -105 44 -39 110 -9 110 51 0 63 -68
96 -110 54z"/>
<path d="M6753 8232 c-54 -8 -71 -87 -26 -122 41 -32 95 -14 107 36 13 51 -29
95 -81 86z"/>
<path d="M6418 8139 c-28 -16 -25 -93 4 -113 51 -36 108 -7 108 53 0 24 -7 44
-18 54 -21 19 -68 22 -94 6z"/>
<path d="M7233 8140 c-70 -28 -45 -140 31 -140 43 0 70 30 70 77 0 57 -46 85
-101 63z"/>
<path d="M6892 8087 c-29 -31 -28 -72 3 -102 30 -30 54 -31 89 -4 35 27 37 90
4 113 -32 23 -71 20 -96 -7z"/>
<path d="M6071 8071 c-43 -43 -11 -121 49 -121 56 0 87 63 53 108 -26 35 -74
41 -102 13z"/>
<path d="M7397 8022 c-38 -42 -2 -132 53 -132 30 0 70 44 70 77 0 46 -25 73
-69 73 -24 0 -44 -7 -54 -18z"/>
<path d="M6591 8004 c-12 -15 -21 -34 -21 -44 0 -31 39 -70 71 -70 61 0 91 73
49 118 -29 31 -73 29 -99 -4z"/>
<path d="M6250 7950 c-43 -43 -14 -120 45 -120 36 0 75 36 75 70 0 10 -9 29
-21 44 -25 32 -70 35 -99 6z"/>
<path d="M7075 7940 c-11 -12 -19 -36 -19 -55 0 -66 69 -100 114 -55 26 26 27
90 2 113 -26 23 -75 21 -97 -3z"/>
<path d="M6761 7874 c-42 -53 -16 -114 49 -114 45 0 70 26 70 72 0 64 -80 91
-119 42z"/>
<path d="M6450 7833 c-49 -18 -64 -68 -34 -111 11 -16 25 -22 54 -22 67 0 93
68 45 115 -24 25 -37 28 -65 18z"/>
<path d="M7277 7819 c-69 -40 -14 -160 60 -133 53 18 68 88 27 128 -18 18 -60
20 -87 5z"/>
<path d="M6956 7749 c-48 -38 -31 -113 30 -125 71 -13 112 69 59 121 -30 30
-54 31 -89 4z"/>
<path d="M6132 7723 c-24 -21 -29 -46 -19 -86 7 -27 39 -47 73 -47 24 0 64 47
64 75 0 33 -41 75 -73 75 -14 0 -34 -8 -45 -17z"/>
<path d="M6610 7698 c-27 -30 -26 -73 5 -103 47 -48 115 -19 115 50 0 67 -75
101 -120 53z"/>
<path d="M7129 7631 c-50 -40 -17 -131 48 -131 32 0 73 42 73 75 0 33 -41 75
-73 75 -14 0 -35 -8 -48 -19z"/>
<path d="M6330 7590 c-12 -12 -20 -33 -20 -55 0 -79 89 -104 125 -34 21 39 19
56 -10 84 -29 30 -68 32 -95 5z"/>
<path d="M6796 7567 c-15 -15 -26 -38 -26 -52 0 -32 41 -75 73 -75 35 0 67 35
67 73 0 43 -17 65 -57 73 -26 5 -37 1 -57 -19z"/>
<path d="M7017 7453 c-9 -2 -24 -18 -33 -34 -31 -61 21 -132 80 -109 50 18 62
91 23 128 -23 22 -35 24 -70 15z"/>
<path d="M3165 5950 c-3 -6 -115 -98 -248 -205 -420 -339 -429 -347 -454 -394
-13 -24 -23 -58 -23 -75 1 -47 33 -110 71 -137 33 -24 39 -24 281 -27 l248 -3
20 -26 c20 -25 20 -38 20 -839 0 -448 3 -814 6 -814 4 0 32 21 62 47 66 56 54
28 -17 -42 l-51 -49 0 -428 c0 -413 1 -429 22 -485 41 -110 153 -193 261 -193
36 0 39 2 34 23 -3 12 -9 43 -12 70 -8 51 -3 55 40 35 24 -11 26 -16 21 -48
-3 -19 -9 -45 -12 -57 l-6 -23 697 0 698 0 76 41 c119 65 246 136 371 208
l115 66 -736 3 -736 2 -6 728 c-4 400 -7 1043 -7 1430 0 445 -4 701 -10 697
-5 -3 -7 -12 -3 -20 3 -8 0 -15 -6 -15 -6 0 -12 10 -12 23 -2 36 -7 101 -8
110 -1 5 -10 6 -20 2 -11 -3 -25 1 -35 10 -8 9 -19 15 -23 14 -4 -1 -13 7 -18
18 -6 11 -15 18 -21 16 -14 -5 -27 25 -17 40 5 8 2 8 -9 0 -8 -7 -17 -10 -20
-8 -3 3 -8 -3 -11 -15 -3 -11 -1 -20 4 -20 5 0 9 5 9 10 0 6 4 10 9 10 7 0 8
-19 2 -52 0 -5 -9 -8 -18 -8 -17 1 -17 1 0 11 9 5 17 14 17 18 0 5 -8 8 -17 7
-12 -1 -17 6 -16 17 1 15 -4 18 -27 15 -16 -2 -27 -1 -24 4 3 4 -9 6 -26 4
-17 -2 -33 0 -36 5 -3 5 2 9 11 9 9 0 14 4 10 9 -3 5 -1 12 5 16 5 3 10 -1 10
-9 0 -12 5 -14 25 -6 17 7 25 6 25 -1 0 -8 5 -7 15 1 18 15 20 34 3 23 -23
-14 -38 -12 -39 5 0 14 -2 13 -8 -2 -5 -13 -10 -16 -15 -8 -3 6 -14 9 -24 6
-15 -5 -16 -4 -1 8 11 9 14 19 8 33 -7 19 -8 19 -8 -2 -1 -13 -6 -23 -12 -23
-6 0 -9 -9 -6 -20 3 -11 1 -18 -4 -14 -5 3 -9 12 -9 20 0 8 -7 14 -16 14 -8 0
-12 5 -9 10 3 6 2 10 -4 10 -5 0 -13 9 -16 20 -3 11 -12 20 -20 20 -8 0 -17 9
-20 20 -6 20 -21 20 -73 4 -7 -2 -10 1 -7 6 3 6 15 10 26 10 21 0 23 8 9 30
-8 13 -10 13 -10 -1 0 -17 -19 -29 -46 -29 -8 0 -14 8 -14 18 0 14 2 15 10 2
5 -8 10 -10 10 -5 0 6 -5 17 -10 25 -7 11 -10 11 -10 2 0 -7 -5 -10 -12 -6 -7
5 -8 3 -3 -6 6 -10 3 -12 -13 -8 -15 4 -19 2 -15 -8 3 -8 1 -14 -5 -14 -17 0
-22 29 -6 38 9 5 12 15 8 26 -6 15 -8 15 -21 -4 -8 -11 -12 -30 -8 -43 5 -20
5 -20 -9 3 -8 15 -11 29 -6 35 6 7 2 11 -11 12 -16 2 -17 -2 -9 -17 13 -25 13
-27 -7 -35 -14 -5 -15 -3 -6 6 23 23 -12 65 -61 73 -5 0 -11 7 -14 14 -3 11 0
12 17 2 17 -8 25 -8 36 3 12 12 10 16 -10 25 -15 7 -27 8 -30 2z m-15 -60 c0
-5 -4 -10 -10 -10 -5 0 -10 5 -10 10 0 6 5 10 10 10 6 0 10 -4 10 -10z m50
-10 c18 -12 2 -12 -25 0 -13 6 -15 9 -5 9 8 0 22 -4 30 -9z m240 -100 c-8 -5
-17 -7 -19 -4 -3 3 1 9 9 14 8 5 17 7 19 4 3 -3 -1 -9 -9 -14z m30 -40 c0 -5
-2 -10 -4 -10 -3 0 -8 5 -11 10 -3 6 -1 10 4 10 6 0 11 -4 11 -10z m34 -26 c9
-24 2 -26 -12 -4 -7 11 -8 20 -3 20 5 0 12 -7 15 -16z m333 -206 c-3 -7 -5 -2
-5 12 0 14 2 19 5 13 2 -7 2 -19 0 -25z"/>
<path d="M3480 5788 c0 -4 4 -8 9 -8 6 0 12 4 15 8 3 5 -1 9 -9 9 -8 0 -15 -4
-15 -9z"/>
<path d="M3725 5680 c3 -5 8 -10 11 -10 2 0 4 5 4 10 0 6 -5 10 -11 10 -5 0
-7 -4 -4 -10z"/>
<path d="M3776 5604 c-6 -16 2 -18 22 -5 11 7 11 9 -1 14 -9 3 -18 -1 -21 -9z"/>
<path d="M3822 5599 c-14 -21 -8 -39 11 -38 9 0 9 2 0 6 -10 3 -10 10 -2 25
14 26 7 33 -9 7z"/>
<path d="M3918 5595 c-13 -13 -9 -35 5 -30 14 5 147 13 221 14 91 2 41 11 -90
17 -71 4 -132 3 -136 -1z"/>
<path d="M4258 5583 c7 -3 16 -2 19 1 4 3 -2 6 -13 5 -11 0 -14 -3 -6 -6z"/>
<path d="M4303 5583 c9 -2 23 -2 30 0 6 3 -1 5 -18 5 -16 0 -22 -2 -12 -5z"/>
<path d="M4358 5583 c6 -2 18 -2 25 0 6 3 1 5 -13 5 -14 0 -19 -2 -12 -5z"/>
<path d="M4438 5583 c6 -2 18 -2 25 0 6 3 1 5 -13 5 -14 0 -19 -2 -12 -5z"/>
<path d="M3880 5520 c0 -5 5 -10 10 -10 6 0 10 5 10 10 0 6 -4 10 -10 10 -5 0
-10 -4 -10 -10z"/>
<path d="M6382 4060 c2 -126 -5 -220 -17 -220 -19 0 -26 -65 -31 -324 -5 -229
-4 -239 13 -225 60 47 224 193 251 224 18 19 32 33 32 29 0 -4 52 44 116 107
79 78 110 115 99 117 -13 3 -14 6 -3 20 11 13 11 14 0 8 -7 -4 -19 -3 -27 4
-10 9 -16 7 -25 -7 -11 -17 -11 -17 -6 0 3 10 6 21 6 23 0 2 8 4 18 5 9 0 12
3 5 5 -7 3 -9 12 -6 20 3 8 1 14 -5 14 -5 0 -12 -7 -16 -15 -3 -8 -11 -15 -17
-15 -7 0 -9 3 -6 6 7 8 -30 43 -47 45 -6 1 -17 1 -25 0 -7 -2 -10 2 -7 7 3 5
-8 9 -24 8 -19 -1 -30 -6 -30 -16 -1 -12 -3 -11 -11 3 -6 9 -13 16 -17 13 -4
-2 -13 3 -21 11 -12 13 -10 15 15 11 16 -3 23 -3 17 -1 -7 3 -13 9 -13 14 0 6
-7 6 -17 1 -10 -5 -25 -7 -33 -4 -13 5 -13 3 -1 -11 10 -13 10 -17 1 -17 -6 0
-14 9 -17 20 -3 11 -10 20 -15 20 -5 0 -6 -5 -2 -12 4 -6 3 -8 -4 -4 -6 3 -9
15 -7 26 5 26 -7 25 -23 -1 -7 -12 -16 -18 -19 -15 -3 3 0 12 7 21 8 10 9 15
2 15 -7 0 -9 7 -5 17 6 15 5 16 -9 3 -10 -10 -12 -17 -6 -21 6 -4 2 -12 -10
-18 -26 -14 -32 -14 -32 0 0 5 5 7 11 3 7 -4 10 -1 7 7 -3 8 -10 13 -15 12
-11 -2 -10 26 2 47 5 9 4 12 -1 7 -5 -5 -14 7 -21 25 -10 29 -12 30 -11 8z
m112 -172 c-3 -4 -9 -8 -15 -8 -5 0 -9 4 -9 8 0 5 7 9 15 9 8 0 12 -4 9 -9z
m96 -28 c0 -5 -2 -10 -4 -10 -3 0 -8 5 -11 10 -3 6 -1 10 4 10 6 0 11 -4 11
-10z m75 0 c3 -5 1 -10 -4 -10 -6 0 -11 5 -11 10 0 6 2 10 4 10 3 0 8 -4 11
-10z m53 -5 c-2 -5 -10 -10 -20 -10 -10 -1 -14 4 -11 12 6 15 36 14 31 -2z"/>
<path d="M6350 3965 c0 -38 2 -66 5 -63 7 7 9 118 1 125 -3 3 -6 -24 -6 -62z"/>
<path d="M6535 3950 c3 -5 8 -10 11 -10 2 0 4 5 4 10 0 6 -5 10 -11 10 -5 0
-7 -4 -4 -10z"/>
<path d="M6648 3923 c7 -3 16 -2 19 1 4 3 -2 6 -13 5 -11 0 -14 -3 -6 -6z"/>
<path d="M6345 3880 c-3 -5 -1 -10 4 -10 6 0 11 5 11 10 0 6 -2 10 -4 10 -3 0
-8 -4 -11 -10z"/>
<path d="M6865 3182 c-124 -121 -210 -212 -198 -210 14 4 24 0 27 -9 4 -10 14
-13 30 -9 14 3 28 2 31 -4 3 -5 14 -10 24 -10 9 0 28 -10 41 -22 16 -15 25
-18 28 -10 5 17 22 15 22 -2 0 -8 9 -18 20 -21 11 -3 20 -13 20 -21 0 -8 9
-14 20 -14 11 0 24 -8 27 -17 9 -25 26 -34 36 -20 5 7 6 3 2 -10 -5 -16 -2
-23 8 -23 8 0 18 -7 21 -16 3 -8 10 -13 15 -10 5 3 14 -1 21 -9 7 -8 9 -15 6
-15 -4 0 -2 -9 4 -20 6 -11 15 -18 21 -15 13 9 11 -9 -3 -24 -11 -10 -10 -11
3 -6 20 7 36 -35 38 -100 3 -60 15 -61 21 -2 7 71 3 734 -5 775 -3 18 -10 30
-16 27 -5 -4 -7 -10 -4 -15 3 -5 1 -11 -5 -15 -6 -4 -10 5 -10 22 -1 25 -2 26
-14 11 -18 -25 -29 -22 -16 3 7 11 10 22 8 24 -2 1 -102 -94 -223 -213z"/>
<path d="M5886 2372 c-3 -5 1 -9 9 -9 8 0 15 4 15 9 0 4 -4 8 -9 8 -6 0 -12
-4 -15 -8z"/>
<path d="M5817 2325 c-26 -18 -50 -35 -54 -39 -10 -10 71 -7 87 4 13 9 13 11
0 20 -8 5 -10 10 -4 10 11 0 28 29 22 35 -2 2 -25 -12 -51 -30z"/>
</g>
</svg>
